<?xml version="1.0" encoding="UTF-8"?>
<svg width="158px" height="50px" viewBox="0 0 158 50" version="1.1" xmlns="http://www.w3.org/2000/svg" xmlns:xlink="http://www.w3.org/1999/xlink">
    <!-- Generator: Sketch 47.1 (45422) - http://www.bohemiancoding.com/sketch -->
    <title>Makaton logo</title>
    <desc>Created with Sketch.</desc>
    <defs>
        <polygon id="path-1" points="157.875884 25 157.875884 0 0 0 0 25 0 50 157.875884 50 157.875884 25"></polygon>
    </defs>
    <g id="Symbols" stroke="none" stroke-width="1" fill="none" fill-rule="evenodd">
        <g id="Top-menu" transform="translate(-721.000000, -15.000000)">
            <g id="Page-elements/Makaton_logo" transform="translate(721.000000, 15.000000)">
                <g id="Page-1">
                    <mask id="mask-2" fill="white">
                        <use xlink:href="#path-1"></use>
                    </mask>
                    <g id="Clip-2"></g>
                    <path d="M90.2939686,34.9078245 L95.7333183,29.4732679 C95.8282382,29.375926 95.8604237,29.2465054 95.8604237,29.1502697 C95.8604237,28.9566919 95.7333183,28.8272714 95.4791074,28.8272714 L91.4291894,28.8272714 C91.1106075,28.8272714 90.7931166,29.0208491 90.5705457,29.2796902 L86.8250262,32.8929568 L86.8250262,22.0526038 C86.8250262,21.600185 86.6340953,21.4066073 86.1889534,21.4066073 L83.5148292,21.4066073 C83.0696874,21.4066073 82.8787564,21.600185 82.8787564,22.0526038 L82.8787564,43.3472605 C82.8787564,43.7991263 83.0696874,43.992704 83.5148292,43.992704 L86.1889534,43.992704 C86.6340953,43.992704 86.8250262,43.7991263 86.8250262,43.3472605 L86.8250262,38.3142395 L87.397819,37.7329532 L91.5672052,43.5413914 C91.7581361,43.8306518 92.012347,43.992704 92.330929,43.992704 L96.2450132,43.992704 C96.4992241,43.992704 96.6268751,43.8627304 96.6268751,43.6697057 C96.6268751,43.5413914 96.5952351,43.476128 96.5314096,43.3793391 L90.2939686,34.9078245 Z M108.631521,37.1195884 C108.631521,38.1527404 108.40786,38.6687633 107.866707,39.4109956 C107.198994,40.2500168 106.085048,40.7660398 104.780172,40.7660398 C102.552826,40.7660398 100.706796,39.120076 100.706796,36.4105408 C100.706796,33.6993464 102.6472,32.0539356 104.843997,32.0539356 C106.116688,32.0539356 107.039703,32.440538 107.740147,33.1186132 C108.40786,33.7646097 108.631521,34.4415787 108.631521,35.441546 L108.631521,37.1195884 Z M111.940627,28.8272714 L109.267594,28.8272714 C108.822452,28.8272714 108.631521,29.0208491 108.631521,29.4732679 L108.631521,30.0540011 C107.549216,29.0529277 106.307619,28.5053793 104.302844,28.5053793 C100.165644,28.5053793 96.6328758,31.4090453 96.6328758,36.4105408 C96.6328758,41.766007 100.197284,44.3157023 104.207379,44.3157023 C106.370899,44.3157023 107.580856,43.6370741 108.662616,42.7018171 L108.822452,43.1536828 C109.044478,43.8306518 109.267594,43.992704 109.680551,43.992704 L111.940627,43.992704 C112.386315,43.992704 112.577246,43.7991263 112.577246,43.3472605 L112.577246,29.4732679 C112.577246,29.0208491 112.386315,28.8272714 111.940627,28.8272714 L111.940627,28.8272714 Z M123.853081,28.8272714 L120.919291,28.8272714 L120.919291,24.9241912 C120.919291,24.4717724 120.72836,24.2781947 120.282127,24.2781947 L117.609094,24.2781947 C117.162861,24.2781947 116.972476,24.4717724 116.972476,24.9241912 L116.972476,28.8272714 L115.095352,28.8272714 C114.65021,28.8272714 114.459279,29.0208491 114.459279,29.4732679 L114.459279,31.7320435 C114.459279,32.1828031 114.65021,32.3769339 115.095352,32.3769339 L116.972476,32.3769339 L116.972476,40.0879646 C116.972476,43.0248154 118.882331,44.3157023 121.746295,44.3157023 C122.541113,44.3157023 123.369208,44.2504389 123.973641,44.1536501 C124.356048,44.090046 124.451514,43.992704 124.451514,43.6697057 L124.451514,40.9596175 C124.451514,40.7339612 124.356048,40.6045406 124.132932,40.6045406 C123.78271,40.6045406 123.242102,40.7660398 122.605484,40.7660398 C121.460444,40.7660398 120.919291,40.055886 120.919291,38.7008419 L120.919291,32.3769339 L123.853081,32.3769339 C124.29986,32.3769339 124.490245,32.1828031 124.490245,31.7320435 L124.490245,29.4732679 C124.490245,29.0208491 124.29986,28.8272714 123.853081,28.8272714 L123.853081,28.8272714 Z M133.978967,40.7660398 C131.591785,40.7660398 130.095978,38.9912085 130.095978,36.4426194 C130.095978,33.6351892 131.877636,32.0539356 133.978967,32.0539356 C136.079208,32.0539356 137.861957,33.6351892 137.861957,36.4426194 C137.861957,38.9912085 136.365604,40.7660398 133.978967,40.7660398 L133.978967,40.7660398 Z M133.978967,28.5053793 C129.523185,28.5053793 126.023148,31.4732025 126.023148,36.4105408 C126.023148,41.7018498 129.61865,44.3157023 133.978967,44.3157023 C138.338739,44.3157023 141.935332,41.7018498 141.935332,36.4105408 C141.935332,31.4732025 138.434205,28.5053793 133.978967,28.5053793 L133.978967,28.5053793 Z M153.094428,28.5053793 C150.834896,28.5053793 149.304721,29.4080046 147.904379,30.8283121 L147.904379,29.4732679 C147.904379,29.0208491 147.713448,28.8272714 147.268306,28.8272714 L144.594182,28.8272714 C144.14904,28.8272714 143.958655,29.0208491 143.958655,29.4732679 L143.958655,43.3472605 C143.958655,43.7991263 144.14904,43.992704 144.594182,43.992704 L147.268306,43.992704 C147.713448,43.992704 147.904379,43.7991263 147.904379,43.3472605 L147.904379,37.7976635 C147.904379,36.0554639 148.151498,35.1517324 148.820848,34.0865018 C149.5202,32.9576671 150.576867,32.0539356 151.886107,32.0539356 C153.158799,32.0539356 153.929068,32.90789 153.929068,34.2308555 L153.929068,43.3472605 C153.929068,43.7991263 154.119999,43.992704 154.566232,43.992704 L157.239265,43.992704 C157.684407,43.992704 157.875884,43.7991263 157.875884,43.3472605 L157.875884,32.9399686 C157.875884,30.8084012 156.054403,28.5053793 153.094428,28.5053793 L153.094428,28.5053793 Z M75.824131,37.1195884 C75.824131,38.1527404 75.6015601,38.6687633 75.0604073,39.4109956 C74.3926945,40.2500168 73.2787488,40.7660398 71.9744178,40.7660398 C69.7465265,40.7660398 67.900497,39.120076 67.900497,36.4105408 C67.900497,33.6993464 69.8414464,32.0539356 72.0376977,32.0539356 C73.3109343,32.0539356 74.2334035,32.440538 74.9338473,33.1186132 C75.6015601,33.7646097 75.824131,34.4415787 75.824131,35.441546 L75.824131,37.1195884 Z M79.134328,28.8272714 L76.4612948,28.8272714 C76.016153,28.8272714 75.824131,29.0208491 75.824131,29.4732679 L75.824131,30.0540011 C74.7429164,29.0529277 73.5013198,28.5053793 71.4965449,28.5053793 C67.3598897,28.5053793 63.8271218,31.4090453 63.8271218,36.4105408 C63.8271218,41.766007 67.3909842,44.3157023 71.401625,44.3157023 C73.5651452,44.3157023 74.7745564,43.6370741 75.856862,42.7018171 L76.016153,43.1536828 C76.2387239,43.8306518 76.4612948,43.992704 76.8747967,43.992704 L79.134328,43.992704 C79.5800153,43.992704 79.7709463,43.7991263 79.7709463,43.3472605 L79.7709463,29.4732679 C79.7709463,29.0208491 79.5800153,28.8272714 79.134328,28.8272714 L79.134328,28.8272714 Z M58.960565,21.4066073 L56.6366627,21.4066073 C56.1920664,21.4066073 56.0011354,21.6322636 55.8412989,22.0514977 L50.0179053,37.9591626 L44.1939662,22.0514977 C44.0341297,21.6322636 43.8437443,21.4066073 43.3986024,21.4066073 L41.0747001,21.4066073 C40.6290128,21.4066073 40.3109764,21.600185 40.2476964,22.0514977 L37.8288742,43.3472605 C37.8288742,43.7991263 38.0198051,43.992704 38.464947,43.992704 L41.424922,43.992704 C41.8711549,43.992704 42.0304459,43.7991263 42.0620858,43.3472605 L43.2387659,30.9571795 L47.9498505,43.3472605 C48.1080504,43.7670477 48.2673414,43.992704 48.7446687,43.992704 L51.2911419,43.992704 C51.7684693,43.992704 51.9272147,43.7670477 52.0865057,43.3472605 L56.7959536,30.9571795 L57.9742703,43.3472605 C58.0059103,43.7991263 58.1652012,43.992704 58.6103431,43.992704 L61.5697726,43.992704 C62.016551,43.992704 62.207482,43.7991263 62.207482,43.3472605 L59.7881142,22.0514977 C59.7242887,21.600185 59.4057068,21.4066073 58.960565,21.4066073 L58.960565,21.4066073 Z M22.1490799,34.6157987 C22.1059841,36.0322346 21.829407,36.8386241 21.4911865,37.570901 C21.1453287,38.3197703 19.7498963,40.676994 20.9702178,42.3356786 C21.4960961,43.0508101 22.2396358,43.1310066 22.3165537,43.1022464 C15.607786,46.1475007 6.46928573,43.4628541 6.46928573,34.702079 C6.46928573,30.3786586 9.82748818,26.4473714 14.0917943,26.4473714 C19.2147442,26.4473714 22.2734578,30.5595156 22.1490799,34.6157987 L22.1490799,34.6157987 Z M28.0843046,6.72290668 C27.6233427,6.70742046 27.2343891,6.97345157 26.8432535,7.2710082 L13.5119098,18.5853501 C13.5119098,18.5853501 17.8613166,7.904837 18.3070039,6.84292487 C18.7205058,5.85733767 18.9965374,4.7406707 18.9567146,3.57256735 C18.9130733,2.29052969 18.2257219,1.06269378 17.1619638,0.367473185 C16.8395633,0.156749996 16.2116733,-0.159058247 15.6285156,0.0936989634 C15.2041034,0.27676819 14.9624394,0.684387587 14.7322312,1.12187326 L6.397823,18.1052773 C6.397823,18.1052773 5.62264339,7.56524635 5.52499586,6.41539462 C5.433349,5.3479517 5.3302463,4.23681551 4.75418038,3.22412743 C4.12247173,2.11354433 3.04289365,1.45427388 1.78165842,1.34642343 C1.39979654,1.31434484 0.698807236,1.33425569 0.301125367,1.83423932 C0.0960109864,2.09197424 0.0245482636,2.40612325 0,2.7429485 L0,33.4305499 C0,36.4852065 0.633890717,40.0962608 2.01459416,42.5795866 C3.36856728,45.0142414 8.01255323,50.8807528 16.926846,49.8879756 C20.3936063,49.5334518 24.5739029,48.2740904 26.956721,45.8803634 C27.0407306,45.7951892 27.4613242,45.2863563 27.1323775,44.6104935 C26.6959639,43.7128459 25.3594473,42.6282575 24.0545707,42.5524857 C24.900122,41.9573724 26.5928612,39.6952784 27.3991353,36.3591044 C27.6789855,35.323187 27.8295481,34.2325148 27.8295481,33.1064454 C27.8295481,28.2022919 24.498076,23.0918397 19.7897191,21.4066073 L27.5235131,13.9051936 C27.5235131,13.9051936 29.1998868,12.3775888 29.6504838,11.3024027 C30.1452677,10.1215786 30.0339822,8.71399192 29.3597232,7.62829738 C29.1551544,7.29921524 28.7176498,6.74392369 28.0843046,6.72290668 L28.0843046,6.72290668 Z" id="Fill-1" fill="#FFE000" mask="url(#mask-2)"></path>
                </g>
            </g>
        </g>
    </g>
</svg>